<svg width="187" height="184" viewBox="0 0 187 184" fill="none"
    xmlns="http://www.w3.org/2000/svg">
    <g>
        <path d="M87.3263 0.0985808C135.148 -1.75001 169.876 22.7273 183.384 67.7972C195.027 106.646 177.978 149.567 140.7 171.168C90.7079 200.131 19.9095 179.707 3.24556 113.627C-5.20854 80.1086 2.23576 46.1115 33.0275 22.5115C44.525 26.9218 49.8558 34.9684 47.9067 47.3689C46.1454 58.5777 49.9404 66.155 61.6681 69.125C65.8529 70.1853 69.7464 72.4374 73.687 74.3282C87.068 80.7467 87.9744 82.9847 81.291 96.2297C79.1117 100.551 77.2706 104.703 82.0425 107.668C93.1878 114.594 93.0328 126.534 95.3154 137.039C96.978 144.682 98.8661 152.039 102.999 160.452C105.108 146.212 113.168 136.702 122.467 128.078C126.412 124.418 130.264 120.749 132.678 115.903C138.149 104.924 134.979 97.3746 123.378 93.2833C116.826 90.9749 110.021 91.0828 103.215 90.8529C90.8112 90.4306 80.765 81.9196 79.7693 70.0023C78.7735 58.0616 89.2003 57.4423 96.7291 56.4242C114.548 54.0125 114.628 54.585 123.327 38.6233C119.109 34.8558 114.187 42.1375 110.185 37.9571C105.808 33.3825 108.79 29.0144 110.772 24.6463C111.801 22.3754 112.628 19.9967 110.279 18.0871C108.147 16.3558 105.714 16.9376 103.389 17.8337C100.646 18.8894 98.3542 20.7474 95.8226 22.1737C90.3932 25.2281 84.8558 26.95 79.9195 21.5731C74.3023 15.4503 77.7684 9.93737 81.7513 4.73412C83.2213 2.81516 85.3912 1.55774 87.3169 0.0891971L87.3263 0.0985808Z" fill="#4591CD"/>
        <path d="M87.3262 0.0985107C87.2369 0.572387 87.1759 1.05565 87.0584 1.52483C85.4569 7.91043 74.2411 12.9448 81.939 20.2171C89.6557 27.5036 94.3478 17.5944 100.05 14.0474C105.648 10.566 111.641 11.2182 116.159 15.6238C121.208 20.5409 116.728 24.0128 113.139 27.5317C110.829 29.7979 107.668 32.9508 111.209 36.1084C113.684 38.3136 116.535 35.597 118.968 34.1894C121.781 32.5614 123.552 26.7904 128.042 32.5004C131.25 36.5823 128.859 39.3411 127.103 42.8647C122.913 51.2678 111.627 54.8664 111.721 66.0001C105.827 66.4834 106.16 56.9308 100.35 58.8216C93.8123 60.947 81.1265 61.9276 82.9159 67.5062C85.1516 74.483 84.7007 88.4506 99.0727 87.6671C104.403 87.3762 109.842 86.8272 115.079 87.531C124.158 88.7509 134.364 89.5485 138.398 99.4952C142.259 109.01 138.45 118.722 131.518 124.719C116.953 137.311 104.591 150.416 106.738 175.128C93.9204 156.928 91.8961 139.775 88.2655 123.532C86.9175 117.507 85.4146 114.138 80.3844 111.567C71.6814 107.124 70.6293 101.743 78.3742 95.0849C88.2232 86.6161 84.8604 80.9859 73.8137 78.64C66.2473 77.0354 61.2453 70.4668 52.0679 70.7342C46.3942 70.8984 41.8807 60.0087 43.8768 54.1157C48.6768 39.9604 40.791 31.5902 33.032 22.5161C48.4843 8.69866 66.4023 0.788212 87.3262 0.0985107Z" fill="#99C452"/>
    </g>
</svg>
