<svg width="89" height="758" viewBox="0 0 89 758" fill="none" xmlns="http://www.w3.org/2000/svg">
<path d="M88 99.8657C88 130.433 67.9598 146.134 51.8585 158.752C35.1474 171.85 24.8966 180.783 24.8966 198.748C24.8966 216.713 35.1391 225.646 51.8585 238.744C67.9598 251.362 88 267.063 88 297.622C88 328.181 67.9598 343.89 51.8585 356.5C35.1474 369.598 24.8966 378.531 24.8966 396.496C24.8966 414.461 35.1391 423.394 51.8585 436.492C67.9598 449.11 88 464.811 88 495.37C88 525.929 67.9598 541.629 51.8585 554.248C35.1474 567.346 24.8966 576.279 24.8966 594.244C24.8966 612.209 35.1391 621.142 51.8585 634.24C67.9598 646.858 88 662.559 88 693.118C88 723.677 67.9598 739.377 51.8585 751.996C35.1391 765.102 24.8966 774.035 24.8966 792H1C1 761.441 21.0402 745.74 37.1415 733.122C53.8526 720.024 64.1034 711.091 64.1034 693.126C64.1034 675.161 53.8609 666.228 37.1415 653.13C21.0402 640.52 1 624.811 1 594.252C1 563.693 21.0402 547.984 37.1415 535.374C53.8526 522.276 64.1034 513.343 64.1034 495.378C64.1034 477.413 53.8609 468.48 37.1415 455.382C21.0402 442.764 1 427.063 1 396.504C1 365.945 21.0402 350.236 37.1415 337.626C53.8526 324.528 64.1034 315.595 64.1034 297.63C64.1034 279.665 53.8609 270.732 37.1415 257.634C21.0402 245.016 1 229.315 1 198.756C1 168.197 21.0402 152.488 37.1415 139.878C53.8526 126.78 64.1034 117.847 64.1034 99.8823C64.1034 81.9172 53.8609 72.976 37.1415 59.8864C21.0402 47.2679 1 31.5671 1 1H24.8966C24.8966 18.9651 35.1391 27.9063 51.8585 40.9958C67.9598 53.6144 88 69.3152 88 99.874V99.8657Z" fill="#AFAFAF" stroke="white" stroke-width="2" stroke-miterlimit="10"/>
<path d="M13.51 781.011C19.4571 739.044 75.9918 736.584 75.9918 689.969C75.9918 640.756 13 640.756 13 591.55C13 542.344 75.9918 542.336 75.9918 493.13C75.9918 443.925 13.0082 443.908 13.0082 394.695C13.0082 345.481 76 345.481 76 296.275C76 247.069 13.0082 247.061 13.0082 197.856C13.0082 148.65 76 148.642 76 99.4278C76 50.214 17.2855 50.2716 13.2303 5.92728" stroke="white" stroke-width="2" stroke-miterlimit="10" stroke-dasharray="4 4"/>
<path d="M13.0659 3.46771C13.033 2.6616 13.0083 1.83904 13.0083 1.00003" stroke="white" stroke-width="2" stroke-miterlimit="10"/>
</svg>
